<?xml version="1.0" encoding="utf-8"?>
<!-- Generator: Adobe Illustrator 17.1.0, SVG Export Plug-In . SVG Version: 6.00 Build 0)  -->
<!DOCTYPE svg PUBLIC "-//W3C//DTD SVG 1.1//EN" "http://www.w3.org/Graphics/SVG/1.1/DTD/svg11.dtd">
<svg version="1.1" id="Layer_1" xmlns="http://www.w3.org/2000/svg" xmlns:xlink="http://www.w3.org/1999/xlink" x="0px" y="0px"
   viewBox="0 0 298.8 294.1" enable-background="new 0 0 298.8 294.1" xml:space="preserve">
<g>
  <path fill="#ffffff" d="M214.7,121.2c0.7-16.2-4-29.2-10.4-39.6c-6.4-10.4-17.9-20.7-30.6-19.5c-7.6,0.7-10.9,3.6-12.6,7.6
    c-1.7,4.1-2.1,13.3-2.1,17.2v97.3c18.4-2.5,35.5-13.1,46.2-30C211.1,144.8,214.2,132.3,214.7,121.2"/>
  <path fill="#ffffff" d="M149.4,1C66.9,1,0,66.9,0,148.1C0,223.6,57.5,285.6,131.8,294c3.7,0.2,5.8-0.2,7.6-1.6c1.4-1.2,2-3.2,2-4.9
    l0.1-87.7c-40.2-4.2-72.4-37.4-71.9-78.1c0.5-38.9,27.3-70.1,62.7-77.4c0.9-0.2,1.6-0.4,2.1,0.1c0.6,0.5,0.2,1.9,0.2,1.9l-2.7,13
    c0,0-0.2,0.8-0.4,1.1c-0.2,0.2-0.6,0.4-0.9,0.5c-15.4,4.8-29.3,15.2-36.1,27.8c-5.6,10.5-9.3,18.4-9.3,32.7
    c0,30.8,24.2,59.1,56.2,62.9V87c0-10.2,0.5-22,6.5-30.2c4.7-6.3,12.8-10.2,25.6-10.2c18.5,0,40.6,13.5,51.7,42.8
    c3.4,8.8,5.4,20.1,5.3,32.2c-0.1,40.6-31.8,73.8-71.8,78.2l-0.1,87.7c0,2.3,0.7,4,2.1,5.1c1.6,1.3,3,1.8,7.5,1.4
    c1.7-0.1,4.9-0.6,6.2-0.8c70.5-11.8,124.2-72.2,124.2-145C298.8,66.9,231.9,1,149.4,1"/>
</g>
</svg>
